<svg width="24" height="26" xmlns="http://www.w3.org/2000/svg" xmlns:xlink="http://www.w3.org/1999/xlink" xmlns:svgjs="http://svgjs.com/svgjs" viewBox="0.625 0 22.75 26"><svg xmlns="http://www.w3.org/2000/svg" width="24" height="26" viewBox="1.601 1.255 21.574 24.656" fill="#f4f4f4"><path fill="#F4F4F4" paint-order="stroke fill markers" fill-rule="evenodd" d="M21.634 8.96c-.848 0-1.541.693-1.541 1.54v6.165c0 .847.693 1.54 1.54 1.54.849 0 1.542-.693 1.542-1.54V10.5c0-.848-.693-1.541-1.541-1.541zm-18.493 0c-.847 0-1.54.693-1.54 1.54v6.165c0 .847.693 1.54 1.54 1.54.849 0 1.542-.693 1.542-1.54V10.5c0-.848-.693-1.541-1.542-1.541zm2.312 10.016a2.312 2.312 0 0 0 2.312 2.312h.77v3.082c0 .847.693 1.54 1.541 1.54s1.541-.693 1.541-1.54v-3.082h1.541v3.082c0 .847.693 1.54 1.541 1.54s1.541-.693 1.541-1.54v-3.082h.77a2.312 2.312 0 0 0 2.312-2.312v-8.475H5.453v8.475zm9.79-15.566l.975-1.874a.193.193 0 1 0-.341-.178l-.99 1.902a6.92 6.92 0 0 0-2.5-.464 6.92 6.92 0 0 0-2.498.464l-.99-1.902a.193.193 0 0 0-.342.177l.975 1.875a6.939 6.939 0 0 0-4.036 5.55h13.783a6.939 6.939 0 0 0-4.036-5.55zM9.306 7.765a1.118 1.118 0 1 1 0-2.235 1.118 1.118 0 0 1 0 2.235zm6.164 0a1.118 1.118 0 1 1 0-2.235 1.118 1.118 0 0 1 0 2.235z"/></svg></svg>