<svg width="22" height="27" xmlns="http://www.w3.org/2000/svg" xmlns:xlink="http://www.w3.org/1999/xlink" xmlns:svgjs="http://svgjs.com/svgjs" viewBox="0.007 0 21.986 27"><svg xmlns="http://www.w3.org/2000/svg" width="22" height="27" viewBox="3.003 1.714 20.078 24.656" fill="#f4f4f4"><path fill="#F4F4F4" paint-order="stroke fill markers" fill-rule="evenodd" d="M19.771 14.814c-.03-3.122 2.547-4.62 2.662-4.694-1.449-2.12-3.705-2.41-4.508-2.443-1.92-.195-3.748 1.13-4.721 1.13-.972 0-2.477-1.103-4.069-1.072-2.092.03-4.022 1.216-5.1 3.09-2.174 3.774-.557 9.363 1.562 12.423 1.036 1.498 2.271 3.18 3.893 3.12 1.56-.061 2.15-1.01 4.039-1.01 1.887 0 2.418 1.01 4.07.98 1.68-.031 2.745-1.527 3.773-3.03 1.19-1.737 1.678-3.42 1.709-3.506-.038-.017-3.277-1.258-3.31-4.988zM16.667 5.65c.86-1.043 1.441-2.492 1.282-3.936-1.239.05-2.742.824-3.63 1.866-.8.924-1.497 2.4-1.31 3.816 1.384.108 2.796-.704 3.658-1.746z"/></svg></svg>