<svg width="44" height="44" xmlns="http://www.w3.org/2000/svg" xmlns:xlink="http://www.w3.org/1999/xlink" xmlns:svgjs="http://svgjs.com/svgjs"><svg xmlns="http://www.w3.org/2000/svg" width="44" height="44" viewBox="1.003 1.991 43 43" fill="#fff"><path fill="#FFF" paint-order="stroke fill markers" fill-rule="evenodd" d="M44.003 26.24v-5.5l-4.595-.368a17.042 17.042 0 0 0-.703-2.636l3.793-2.614-2.75-4.763-4.166 1.98a17.35 17.35 0 0 0-1.927-1.927l1.98-4.166-4.764-2.75-2.614 3.793a17.09 17.09 0 0 0-2.636-.703l-.369-4.595h-5.5l-.368 4.595c-.905.166-1.786.401-2.636.703l-2.614-3.792-4.764 2.75 1.98 4.165a17.232 17.232 0 0 0-1.927 1.927l-4.165-1.98-2.75 4.764L6.3 17.736c-.302.85-.536 1.731-.702 2.637l-4.595.368v5.5l4.595.368c.166.905.4 1.786.702 2.636L2.51 31.859l2.75 4.763 4.164-1.979a17.344 17.344 0 0 0 1.928 1.927l-1.98 4.165 4.764 2.75 2.613-3.792c.85.302 1.731.537 2.636.703l.368 4.595h5.501l.368-4.595a17.068 17.068 0 0 0 2.636-.703l2.614 3.792 4.764-2.75-1.98-4.165a17.295 17.295 0 0 0 1.927-1.928l4.165 1.98 2.75-4.763-3.792-2.614c.302-.85.537-1.73.703-2.636l4.595-.368zm-21.5 1.551a4.3 4.3 0 1 1 0-8.6 4.3 4.3 0 0 1 0 8.6z"/></svg></svg>