<svg width="49" height="49" xmlns="http://www.w3.org/2000/svg" xmlns:xlink="http://www.w3.org/1999/xlink" xmlns:svgjs="http://svgjs.com/svgjs"><svg xmlns="http://www.w3.org/2000/svg" width="49" height="49" viewBox="2 2 48 48" fill="#fff"><path fill="#FFF" paint-order="stroke fill markers" fill-rule="evenodd" d="M19.03 38L34 32.281 50 20l-23.953-3.938L2 20l16.991 18.02.038-.02zm6.923-36L14.101 27.51l-3.025 22.396 22.069-11.923L50 20H2l39.018 29.906-2.61-22.473L25.952 2zm-5.895 36L34 32.281 50 20l-23.953-3.938L2 20l18.02 18.02 20.998 11.886L20.058 38zm5.895-36L11.076 49.906 50 20H2l34.536 7.62L25.953 2zm15.158 48L19.965 38l18.433-10.688L41.11 50z"/></svg></svg>