<svg width="48" height="48" xmlns="http://www.w3.org/2000/svg" xmlns:xlink="http://www.w3.org/1999/xlink" xmlns:svgjs="http://svgjs.com/svgjs"><svg xmlns="http://www.w3.org/2000/svg" width="48" height="48" viewBox="2 2 47 47" fill="#fff"><path fill="#FFF" paint-order="stroke fill markers" fill-rule="evenodd" d="M25.5 3.469c12.168 0 22.031 9.863 22.031 22.031 0 12.167-9.863 22.031-22.031 22.031-12.167 0-22.031-9.864-22.031-22.031 0-12.168 9.864-22.031 22.031-22.031zM25.5 2C38.479 2 49 12.521 49 25.5S38.479 49 25.5 49 2 38.479 2 25.5 12.52 2 25.5 2zm0 5.875c9.734 0 17.625 7.891 17.625 17.625S35.234 43.125 25.5 43.125 7.875 35.234 7.875 25.5 15.765 7.875 25.5 7.875zm-6.242 6.701c-1.653 0-3.397 5.416-3.856 6.15-.459.735-1.927 1.561-3.396 1.561-1.469 0-1.194.734-2.02 1.193-.826.46-.826-.459-1.652.092s.184 3.121.184 4.682c0 1.56 2.294 3.03 2.478 4.314.184 1.285 4.13 1.47 4.13 1.47l1.286.917 1.836.367 1.652-2.295 2.02 2.02s.642 2.57 1.285 2.57c.643 0 .643-3.12.275-4.039-.367-.918-.275-1.285-.459-2.203-.183-.918.918-2.479 1.194-3.58.275-1.102 1.652-1.377 1.744-3.305.092-1.928-.092-1.01-2.57-1.285-2.479-.275-.735-.459-2.112-.459-.918.826-1.193-.367-1.836-1.102-.642-.734-.734-5.14.735-4.957 1.469.184-.735.551 1.101-1.652 1.767-2.12-.367-.459-2.02-.459zm12.025 18.91c-.734.092-.642.918-1.56 1.102-.918.184-1.194 0-1.928 1.01-.735 1.01-2.57.459-2.02 1.101.551.643 2.54 2.203 3.948 2.203 1.652 0 2.478-1.101 4.13-.826 1.653.276 1.377-2.387 2.663-2.203 1.285.184-1.745-.275-2.204-1.101-.459-.827-2.294-1.378-3.029-1.286zm13.953-16.799c0-1.193-4.681-2.478-4.039-3.029.643-.55-5.232 2.203-4.498.918.735-1.285-3.213-2.02-4.406-1.928-1.193.092-1.399 3.747-.918 4.131-.061-.049 2.754 4.241 2.754 4.498 0 .551.734 2.479 0 2.754-.735.276-2.295 4.59-1.56 5.14.734.552 4.13-2.11 4.13-2.11s2.795-.255 3.213-1.928c.184-.735 3.03-.735 3.947-1.469.918-.734 1.377-5.783 1.377-6.977zm-28.199-6.206c4.04-2.754 6.679-2.33 8.34-2.028 1.01.184 3.091.4 3.091.4l-2.49 3.85-1.677-.459s-4.37 2.933-5.668.726-2.928.351-5.46 2.493c-2.531 2.142-.175-2.228 3.864-4.982zm21.599 1.764c-.454.585.195 1.104-.325 1.883-.519.779-.843.844-.649 2.077.195 1.233-1.493 2.142-.649 2.207.844.065 3.354-.238 4.35-1.233 1.167-1.169.973-2.532 2.336-3.506 1.363-.973-.714-2.66.324-3.44 1.039-.779-1.428 1.039-2.336.78-.91-.26-2.597.648-3.051 1.232z"/></svg></svg>