<svg width="20" height="19" xmlns="http://www.w3.org/2000/svg" xmlns:xlink="http://www.w3.org/1999/xlink" xmlns:svgjs="http://svgjs.com/svgjs" viewBox="0 0.026 20 18.947"><svg xmlns="http://www.w3.org/2000/svg" width="20" height="19" viewBox="1 2 19 18" fill="#fff"><path fill="#FFF" paint-order="stroke fill markers" fill-rule="evenodd" d="M10.476 16.463c0-.152-.016-.298-.049-.438a6.076 6.076 0 0 0-.102-.39 1.346 1.346 0 0 0-.19-.373l-.227-.33a2.076 2.076 0 0 0-.286-.319c-.13-.122-.23-.215-.298-.276a5.932 5.932 0 0 0-.346-.275 15.495 15.495 0 0 0-.336-.25l-.356-.248a30.207 30.207 0 0 0-.33-.227 4.966 4.966 0 0 0-.541-.022c-.39 0-.772.025-1.147.076-.375.05-.764.14-1.168.27a4.23 4.23 0 0 0-1.06.498 2.38 2.38 0 0 0-.747.811 2.282 2.282 0 0 0-.292 1.157c0 .49.128.929.384 1.315.256.386.592.688 1.006.908.415.22.85.384 1.304.493.454.108.912.162 1.374.162.425 0 .83-.045 1.217-.135a4.1 4.1 0 0 0 1.087-.422c.339-.192.607-.456.806-.795.198-.34.297-.736.297-1.19zM9.178 7.138c0-.432-.06-.892-.178-1.379a7.105 7.105 0 0 0-.509-1.412 3.094 3.094 0 0 0-.909-1.125A2.075 2.075 0 0 0 6.29 2.78c-.671 0-1.19.249-1.558.746-.368.498-.552 1.093-.552 1.785 0 .34.042.696.125 1.071.083.375.21.75.384 1.125.173.375.375.712.606 1.012.23.299.512.542.843.73.332.187.682.281 1.05.281.7 0 1.206-.218 1.52-.654.313-.437.47-1.016.47-1.737zM7.761 2h4.727l-1.46.855h-1.46c.511.324.908.778 1.19 1.363.28.584.421 1.193.421 1.828 0 .533-.083 1.007-.249 1.422-.166.415-.367.748-.605 1-.238.253-.476.486-.714.698-.238.213-.44.433-.606.66-.166.228-.249.471-.249.73 0 .188.06.372.179.552.119.18.273.354.465.52.19.165.402.338.632.519.231.18.462.38.693.6.23.22.441.458.633.714.19.256.346.562.465.92.119.356.178.74.178 1.151 0 1.154-.505 2.171-1.514 3.051C9.39 19.528 7.877 20 5.944 20c-.426 0-.857-.036-1.293-.108a6.79 6.79 0 0 1-1.32-.362 4.974 4.974 0 0 1-1.173-.628 2.916 2.916 0 0 1-.833-.963A2.68 2.68 0 0 1 1 16.625c0-.44.134-.927.4-1.46.231-.462.577-.86 1.039-1.196a5.208 5.208 0 0 1 1.568-.768 12.319 12.319 0 0 1 1.677-.389 12.782 12.782 0 0 1 1.622-.146c-.46-.599-.692-1.136-.692-1.612a1.505 1.505 0 0 1 .076-.465l.086-.232c.037-.098.062-.175.076-.233-.288.036-.54.054-.757.054-1.074 0-1.996-.353-2.764-1.06C2.563 8.41 2.18 7.524 2.18 6.457c0-1.01.343-1.913 1.028-2.71a4.575 4.575 0 0 1 2.531-1.53A9.68 9.68 0 0 1 7.761 2zM20 5v1h-3v3h-1V6h-3V5h3V2h1v3h3z"/></svg></svg>