<svg width="16" height="16" xmlns="http://www.w3.org/2000/svg" xmlns:xlink="http://www.w3.org/1999/xlink" xmlns:svgjs="http://svgjs.com/svgjs" viewBox="0 0 15.999 16"><svg xmlns="http://www.w3.org/2000/svg" width="16" height="16" viewBox="1 1.992 15.007 15.008" fill="#fff"><path fill="#FFF" paint-order="stroke fill markers" fill-rule="evenodd" d="M12.428 17v-5.656c0-1.37-.553-2.165-1.42-2.165-.754 0-1.465.377-1.839.986-.121.198-.204.636-.204.939v5.868L6 17V6l2.595.182.149 1.876h.064c.423-.755 1.466-1.706 3.209-1.706 2.122 0 3.99 1.44 3.99 4.571v6.049l-3.58.028zM1 6h3v11l-3-.028V6zm1.711-.703c-1.017 0-1.677-.739-1.677-1.653 0-.935.681-1.652 1.722-1.652 1.039 0 1.676.717 1.698 1.652 0 .914-.66 1.653-1.743 1.653z"/></svg></svg>