<svg width="21" height="21" xmlns="http://www.w3.org/2000/svg" xmlns:xlink="http://www.w3.org/1999/xlink" xmlns:svgjs="http://svgjs.com/svgjs"><svg xmlns="http://www.w3.org/2000/svg" width="21" height="21" viewBox="1 2 20 20" fill="#fff"><path fill="#FFF" paint-order="stroke fill markers" fill-rule="evenodd" d="M21 12c0 1.814-.447 3.488-1.341 5.02a9.95 9.95 0 0 1-3.64 3.638C14.489 21.553 12.815 22 11 22c-.963 0-1.91-.139-2.838-.416.512-.808.85-1.52 1.015-2.136.078-.295.313-1.211.703-2.747.174.338.49.631.95.879.46.246.956.371 1.485.371 1.05 0 1.988-.298 2.813-.892.824-.595 1.462-1.413 1.914-2.455.451-1.041.677-2.213.677-3.516 0-.989-.258-1.917-.775-2.785-.516-.869-1.265-1.576-2.246-2.123-.98-.547-2.088-.82-3.32-.82a8.37 8.37 0 0 0-2.552.377c-.79.252-1.46.586-2.012 1.003a6.85 6.85 0 0 0-1.42 1.438 5.961 5.961 0 0 0-.872 1.687 5.678 5.678 0 0 0-.28 1.744c0 .903.174 1.697.521 2.383.347.686.855 1.168 1.524 1.446.26.103.425.017.494-.26.018-.061.053-.196.104-.404.053-.21.087-.339.105-.391.052-.2.004-.386-.144-.56-.442-.53-.664-1.184-.664-1.966 0-1.31.454-2.438 1.361-3.379.907-.942 2.094-1.413 3.561-1.413 1.31 0 2.333.356 3.067 1.068.733.712 1.1 1.636 1.1 2.773 0 1.476-.298 2.73-.892 3.764-.594 1.032-1.356 1.549-2.285 1.549-.53 0-.955-.19-1.276-.567-.321-.377-.421-.83-.3-1.36.07-.304.185-.71.345-1.218.16-.507.291-.954.391-1.341.1-.386.15-.714.15-.983 0-.434-.117-.795-.352-1.08-.234-.287-.568-.43-1.003-.43-.538 0-.993.247-1.367.742-.373.495-.56 1.111-.56 1.848 0 .635.109 1.164.326 1.59l-1.29 5.442c-.147.608-.203 1.376-.168 2.304-1.789-.79-3.234-2.009-4.336-3.658C1.55 15.858 1 14.023 1 12c0-1.814.447-3.487 1.341-5.02a9.95 9.95 0 0 1 3.64-3.638C7.512 2.447 9.186 2 11 2c1.813 0 3.487.447 5.019 1.342a9.95 9.95 0 0 1 3.639 3.638C20.553 8.513 21 10.186 21 12z"/></svg></svg>