<svg width="19" height="23" xmlns="http://www.w3.org/2000/svg" xmlns:xlink="http://www.w3.org/1999/xlink" xmlns:svgjs="http://svgjs.com/svgjs" viewBox="0.086 0 18.828 23"><svg xmlns="http://www.w3.org/2000/svg" width="19" height="23" viewBox="1.995 2 18.009 22" fill="#fff"><path fill="#FFF" paint-order="stroke fill markers" fill-rule="evenodd" d="M9.112 2.134H7.878l-.832 3.23-.866-3.23H4.897c.257.762.525 1.528.782 2.291.39 1.148.635 2.012.745 2.602v3.331h1.22v-3.33l1.468-4.894m1.633 2.022c-.547 0-.975.209-1.279.628-.234.31-.344.789-.344 1.444v2.146c0 .652.11 1.134.344 1.441.304.418.732.628 1.28.628.551 0 .98-.21 1.283-.628.231-.307.341-.79.341-1.441V6.228c0-.655-.11-1.134-.34-1.444-.305-.42-.733-.628-1.285-.628-.551 0 0 0 0 0m5.693.073h-1.1v4.685c-.243.348-.474.52-.694.52-.148 0-.234-.088-.258-.26-.014-.036-.014-.172-.014-.433V4.23h-1.096v4.847c0 .432.037.725.098.912.109.31.353.455.708.455.4 0 .818-.246 1.256-.754v.67h1.1v-6.13m-5.693 5.205c-.353 0-.524-.284-.524-.85v-2.58c0-.566.17-.85.524-.85.355 0 .526.284.526.85v2.58c0 .566-.17.85-.526.85-.355 0 0 0 0 0M9.114 2H7.881l-.832 3.23L6.184 2H4.9c.257.762.525 1.529.782 2.292.391 1.147.635 2.011.746 2.602v3.33h1.219v-3.33L9.114 2zm3.26 6.24V6.094c0-.654-.111-1.133-.341-1.443-.305-.419-.732-.628-1.284-.628-.547 0-.976.21-1.28.628-.234.31-.345.789-.345 1.443v2.148c0 .65.111 1.134.345 1.441.304.418.733.628 1.28.628.552 0 .98-.21 1.284-.628.23-.307.341-.79.341-1.441zm-1.1.21c0 .567-.17.85-.525.85s-.525-.283-.525-.85V5.87c0-.567.17-.849.525-.849s.525.282.525.85v2.577zm5.168 1.775V4.096h-1.1V8.78c-.244.348-.476.52-.695.52-.148 0-.234-.088-.258-.26-.013-.036-.013-.17-.013-.432V4.096h-1.097v4.846c0 .433.037.727.097.911.11.311.355.457.71.457.4 0 .818-.247 1.255-.754v.669h1.1zm3.25 3.14c-.22-.967-1.003-1.68-1.946-1.787-2.233-.252-4.493-.253-6.743-.252-2.251-.001-4.51 0-6.744.252-.943.107-1.726.82-1.946 1.786-.314 1.378-.318 2.88-.318 4.299 0 1.418 0 2.922.314 4.299.22.967 1.003 1.68 1.946 1.786 2.233.252 4.493.253 6.744.252 2.25.001 4.51 0 6.744-.252.942-.106 1.726-.819 1.946-1.786.314-1.377.316-2.881.316-4.3 0-1.417.001-2.92-.312-4.298zm-12.56 1.238H5.83v6.994H4.618v-6.994h-1.28v-1.146h3.794v1.146zm3.289 6.994h-1.09v-.661c-.432.5-.843.745-1.243.745-.35 0-.593-.144-.702-.452-.06-.183-.095-.472-.095-.9v-4.796h1.087v4.465c0 .256 0 .391.011.427.026.17.11.256.254.256.219 0 .447-.17.688-.514v-4.634h1.09v6.064zm4.134-1.82c0 .561-.037.965-.11 1.222-.145.452-.436.682-.87.682-.387 0-.76-.217-1.124-.672v.588h-1.089v-8.14h1.089v2.659c.35-.436.724-.658 1.124-.658.434 0 .725.23.87.685.073.244.11.645.11 1.22v2.414zm4.107-1.012h-2.176v1.075c0 .561.182.841.556.841.267 0 .424-.146.486-.44.01-.06.024-.303.024-.745h1.11v.16c0 .355-.013.598-.023.71a1.588 1.588 0 0 1-.254.658c-.301.44-.748.657-1.316.657-.57 0-1.003-.207-1.318-.622-.23-.302-.35-.781-.35-1.426v-2.125c0-.648.106-1.12.337-1.428.315-.415.748-.622 1.304-.622.546 0 .98.207 1.284.622.227.307.336.78.336 1.428v1.257zm-5.669-2.317c-.179 0-.36.085-.542.266v3.698c.182.184.363.27.542.27.314 0 .474-.27.474-.818v-2.589c0-.547-.16-.827-.474-.827zm4.039 0c-.364 0-.546.28-.546.841v.561h1.088v-.561c0-.56-.182-.841-.542-.841z"/></svg></svg>